<svg data-v-fde0c5aa="" xmlns="http://www.w3.org/2000/svg" viewBox="0 0 300 300" class="iconLeftSlogan"><!----><defs data-v-fde0c5aa=""><!----></defs><rect data-v-fde0c5aa="" fill="#FF3435" x="0" y="0" width="300px" height="300px" class="logo-background-square"></rect><defs data-v-fde0c5aa=""><!----></defs><g data-v-fde0c5aa="" id="85561e79-2038-4268-baad-c1270a660cd0" fill="#F7F9FD" transform="matrix(1.9126918315887451,0,0,1.9126918315887451,99.35302242902502,129.51844804702606)"><path d="M0.66 9.86C2.02 10.56 3.26 10.63 3.82 10.58C5.70 10.49 6.85 9.21 6.85 7.55C6.85 5.95 5.50 5.05 3.95 4.48C3.37 4.28 2.88 4.03 2.83 3.47C2.79 2.91 3.11 2.39 3.82 2.35C4.13 2.34 4.76 2.32 5.87 2.77L6.12 0.84C4.83 0.39 4.14 0.39 3.63 0.42C1.96 0.50 0.80 1.79 0.80 3.47C0.80 5.15 2.20 5.95 3.77 6.52C4.33 6.72 4.76 6.97 4.80 7.55C4.86 8.09 4.35 8.51 3.77 8.55C3.30 8.60 2.06 8.57 0.91 7.76L0.66 9.86L0.66 9.86ZM12.18 10.50L12.18 2.49L14.67 2.49L14.67 0.50L7.69 0.50L7.69 2.49L10.18 2.49L10.18 10.50L12.18 10.50L12.18 10.50ZM23.37 7.01L23.37 0.49L21.38 0.49L21.38 7C21.38 9.10 18.13 9.10 18.13 7L18.13 0.49L16.13 0.49L16.13 7.01C16.13 11.77 23.37 11.77 23.37 7.01L23.37 7.01ZM28.56 0.49L25.58 0.49L25.58 10.50L28.56 10.50C35.22 10.50 35.22 0.49 28.56 0.49L28.56 0.49ZM28.56 2.49C32.45 2.49 32.45 8.50 28.56 8.50L27.58 8.50L27.58 2.49L28.56 2.49L28.56 2.49ZM37.44 10.50L37.44 0.49L35.43 0.49L35.43 10.50L37.44 10.50L37.44 10.50ZM44.51 10.64L44.51 10.64C51.39 10.64 51.39 0.32 44.51 0.32C37.62 0.32 37.62 10.64 44.51 10.64ZM44.51 8.57L44.51 8.57C40.50 8.57 40.50 2.38 44.51 2.38C48.51 2.38 48.51 8.57 44.51 8.57ZM55.52 0.49L55.52 0.49L55.52 10.50L60.70 10.50L60.70 8.50L57.53 8.50L57.53 0.49L55.52 0.49ZM64.43 10.50L64.43 0.49L62.43 0.49L62.43 10.50L64.43 10.50L64.43 10.50ZM66.68 0.49L66.68 0.49L66.68 10.50L71.86 10.50L71.86 8.50L68.68 8.50L68.68 0.49L66.68 0.49ZM75.59 10.50L75.59 0.49L73.58 0.49L73.58 10.50L75.59 10.50L75.59 10.50ZM81.49 10.50L81.49 2.49L83.99 2.49L83.99 0.50L77 0.50L77 2.49L79.49 2.49L79.49 10.50L81.49 10.50L81.49 10.50Z"></path></g><defs data-v-fde0c5aa=""><!----></defs><g data-v-fde0c5aa="" id="13a1d0c5-0ae3-482c-b582-fb992b70761b" stroke="none" fill="#F7F9FD" transform="matrix(0.48389124870300293,0,0,0.48389124870300293,39.61830830419879,125.7071004473826)"><path d="M81.42 33.148a21.785 21.785 0 0 0-3.643.096c.666-2.095 1.101-4.272 1.184-6.544C79.413 14.401 68.269-.434 54.93.224 45.811.673 41.703 8.46 40.164 18.012c-6.568-7.277-17.094-11.529-25.897-5.23-9.994 7.149-8.729 20.643-2.083 29.348C5.265 44.292.445 49.31.808 58.929c.325 8.62 7.954 14.543 15.932 15.406-3.205 8.821-1.202 19.49 7.836 24.033 9.986 5.018 21.415-.905 26.426-9.873 1.006-1.799 1.808-3.709 2.447-5.695 6.502 5.989 16.676 9.042 23.84 2.418 5.531-5.111 6.696-12.063 4.594-18.34 8.251-.924 16.716-6.633 17.27-15.359.669-10.508-7.874-17.767-17.733-18.371zM54.934 14.365c2.377-4.932 10.208 6.241 10.926 8.385 2.632 7.855-5.449 15.767-12.628 20.128-1.476-9.196-2.081-20.672 1.702-28.513zm-33.955 9.673c3.942-7.441 12.731 7.188 13.951 9.604 1.488 2.952 2.773 6.181 3.818 9.501a77.734 77.734 0 0 0-4.726-1.095c-8.863-3.727-17.482-9.631-13.043-18.01zm-7.341 33.425c.796-5.031 7.454-5.261 14.458-3.947a82.55 82.55 0 0 0 3.927 1.597c-.598.521-1.17 1.065-1.751 1.602a64.57 64.57 0 0 1-4.161 2.527c-2.403 1.324-13.584 5.24-12.473-1.779zm17.583 29.652c-8.911-1.219 1.6-14.623 3.778-16.995.865-.943 1.809-1.829 2.737-2.728a78.895 78.895 0 0 0 4.939-3.646c.377 10.71-.963 24.8-11.454 23.369zm37.967-11.926c-3.812 4.821-9.989-5.737-11.163-7.966a49.743 49.743 0 0 1-2.594-5.85c-.008-.143-.016-.283-.021-.426.734.272 1.486.56 2.243.862.625.271 1.246.541 1.882.791 7.077 3.102 13.623 7.568 9.653 12.589zm16.845-23.888c-2.572 5.304-11.213 3.555-18.867.577-.239-.121-.484-.236-.729-.354 2.421-1.447 4.924-2.754 7.536-3.808 2.495-1.008 15.494-3.504 12.06 3.585z"></path></g><defs data-v-fde0c5aa=""><!----></defs><g data-v-fde0c5aa="" id="0fb734e8-7141-4330-b102-0106fa2c7032" fill="#F7F9FD" transform="matrix(0.7510702013969421,0,0,0.7510702013969421,100.51775997868135,158.60769267617295)"><path d="M7.03 11.48L8.23 11.48L10.43 4.48L9.31 4.48L7.63 10.18L5.85 4.48L4.70 4.48L2.93 10.18L1.25 4.48L0.13 4.48L2.32 11.48L3.53 11.48L5.28 5.89ZM21.53 10.64C20.12 10.64 19.21 9.65 19.05 8.40L24.92 8.40L24.92 7.98C24.92 5.98 23.59 4.37 21.45 4.37C19.31 4.37 17.98 5.98 17.98 7.98C17.98 9.98 19.38 11.59 21.52 11.59C23.18 11.59 24.22 10.72 24.71 9.46L23.56 9.46C23.18 10.16 22.51 10.64 21.53 10.64ZM21.45 5.32C22.79 5.32 23.63 6.23 23.83 7.42L19.07 7.42C19.26 6.23 20.10 5.32 21.45 5.32ZM36.76 4.37C35.60 4.37 34.78 4.86 34.26 5.61L34.26 1.68L33.21 1.68L33.21 11.48L34.26 11.48L34.26 10.36C34.78 11.12 35.60 11.59 36.76 11.59C38.81 11.59 40.15 9.98 40.15 7.98C40.15 5.98 38.81 4.37 36.76 4.37ZM36.62 10.64C35.07 10.64 34.20 9.42 34.20 7.98C34.20 6.54 35.07 5.32 36.62 5.32C38.18 5.32 39.10 6.54 39.10 7.98C39.10 9.42 38.18 10.64 36.62 10.64ZM61.46 4.37C59.42 4.37 58.07 5.98 58.07 7.98C58.07 9.98 59.42 11.59 61.46 11.59C62.62 11.59 63.45 11.12 63.97 10.36L63.97 11.48L65.02 11.48L65.02 1.68L63.97 1.68L63.97 5.61C63.45 4.86 62.62 4.37 61.46 4.37ZM61.60 10.64C60.05 10.64 59.12 9.42 59.12 7.98C59.12 6.54 60.05 5.32 61.60 5.32C63.15 5.32 64.02 6.54 64.02 7.98C64.02 9.42 63.15 10.64 61.60 10.64ZM76.96 10.64C75.54 10.64 74.63 9.65 74.48 8.40L80.35 8.40L80.35 7.98C80.35 5.98 79.02 4.37 76.87 4.37C74.73 4.37 73.40 5.98 73.40 7.98C73.40 9.98 74.80 11.59 76.94 11.59C78.61 11.59 79.65 10.72 80.14 9.46L78.99 9.46C78.61 10.16 77.94 10.64 76.96 10.64ZM76.87 5.32C78.22 5.32 79.06 6.23 79.25 7.42L74.49 7.42C74.69 6.23 75.53 5.32 76.87 5.32ZM93.30 4.48L91.10 10.36L88.89 4.48L87.74 4.48L90.48 11.48L91.71 11.48L94.44 4.48ZM118.50 7.73L115.79 7.73L115.79 4.89L114.88 4.89L114.88 7.73L112.20 7.73L112.20 8.64L114.88 8.64L114.88 11.48L115.79 11.48L115.79 8.64L118.50 8.64ZM140.04 4.37C138.00 4.37 136.65 5.98 136.65 7.98C136.65 9.98 138.00 11.59 140.04 11.59C141.20 11.59 142.03 11.12 142.55 10.36L142.55 11.48L143.60 11.48L143.60 1.68L142.55 1.68L142.55 5.61C142.03 4.86 141.20 4.37 140.04 4.37ZM140.18 10.64C138.63 10.64 137.70 9.42 137.70 7.98C137.70 6.54 138.63 5.32 140.18 5.32C141.74 5.32 142.60 6.54 142.60 7.98C142.60 9.42 141.74 10.64 140.18 10.64ZM155.54 10.64C154.13 10.64 153.22 9.65 153.06 8.40L158.93 8.40L158.93 7.98C158.93 5.98 157.60 4.37 155.46 4.37C153.31 4.37 151.98 5.98 151.98 7.98C151.98 9.98 153.38 11.59 155.53 11.59C157.19 11.59 158.23 10.72 158.72 9.46L157.57 9.46C157.19 10.16 156.52 10.64 155.54 10.64ZM155.46 5.32C156.80 5.32 157.64 6.23 157.84 7.42L153.08 7.42C153.27 6.23 154.11 5.32 155.46 5.32ZM169.65 4.37C167.85 4.37 166.91 5.11 166.91 6.37C166.91 8.93 171.57 7.84 171.57 9.59C171.57 10.54 170.35 10.70 169.78 10.70C168.42 10.70 167.89 10.00 167.82 9.28L166.73 9.28C166.80 10.51 167.82 11.59 169.76 11.59C171.50 11.59 172.62 10.85 172.62 9.49C172.62 6.86 167.96 7.95 167.96 6.27C167.96 5.59 168.53 5.26 169.62 5.26C170.80 5.26 171.25 5.75 171.33 6.36L172.40 6.36C172.27 5.33 171.50 4.37 169.65 4.37ZM180.96 11.48L182.01 11.48L182.01 4.48L180.96 4.48ZM180.92 1.93L180.92 3.30L182.06 3.30L182.06 1.93ZM196.29 4.48L196.29 5.60C195.78 4.84 194.95 4.37 193.79 4.37C191.74 4.37 190.40 5.92 190.40 7.92C190.40 9.93 191.74 11.48 193.79 11.48C194.95 11.48 195.78 10.99 196.29 10.23L196.29 11.20C196.29 12.64 195.59 13.41 193.98 13.41C192.92 13.41 192.22 13.01 191.94 12.32L190.78 12.32C191.17 13.54 192.28 14.36 194.04 14.36C196.14 14.36 197.34 13.27 197.34 11.27L197.34 4.48ZM193.93 10.53C192.37 10.53 191.45 9.37 191.45 7.92C191.45 6.48 192.37 5.32 193.93 5.32C195.45 5.32 196.35 6.48 196.35 7.92C196.35 9.37 195.45 10.53 193.93 10.53ZM206.16 4.48L206.16 11.48L207.21 11.48L207.21 7.45C207.21 6.19 208.17 5.32 209.33 5.32C210.48 5.32 211.29 6.16 211.29 7.43L211.29 11.48L212.34 11.48L212.34 7.41C212.34 5.42 210.98 4.37 209.54 4.37C208.40 4.37 207.72 4.90 207.21 5.57L207.21 4.48Z"></path></g></svg>