<?xml version="1.0" encoding="UTF-8" standalone="no"?>
<!DOCTYPE svg PUBLIC "-//W3C//DTD SVG 1.1//EN" "http://www.w3.org/Graphics/SVG/1.1/DTD/svg11.dtd">
<svg width="100%" height="100%" viewBox="0 0 255 80" version="1.1" xmlns="http://www.w3.org/2000/svg" xmlns:xlink="http://www.w3.org/1999/xlink" xml:space="preserve" xmlns:serif="http://www.serif.com/" style="fill-rule:evenodd;clip-rule:evenodd;stroke-linejoin:round;stroke-miterlimit:2;">
    <g transform="matrix(0.85,0,0,0.266667,0,0)">
        <rect x="0" y="0" width="300" height="300" style="fill:rgb(17,62,59);"/>
    </g>
    <g transform="matrix(1.91269,0,0,1.91269,72.4648,19.5185)">
        <g id="_85561e79-2038-4268-baad-c1270a660cd0" serif:id="85561e79-2038-4268-baad-c1270a660cd0">
            <path d="M0.66,9.86C2.02,10.56 3.26,10.63 3.82,10.58C5.7,10.49 6.85,9.21 6.85,7.55C6.85,5.95 5.5,5.05 3.95,4.48C3.37,4.28 2.88,4.03 2.83,3.47C2.79,2.91 3.11,2.39 3.82,2.35C4.13,2.34 4.76,2.32 5.87,2.77L6.12,0.84C4.83,0.39 4.14,0.39 3.63,0.42C1.96,0.5 0.8,1.79 0.8,3.47C0.8,5.15 2.2,5.95 3.77,6.52C4.33,6.72 4.76,6.97 4.8,7.55C4.86,8.09 4.35,8.51 3.77,8.55C3.3,8.6 2.06,8.57 0.91,7.76L0.66,9.86ZM12.18,10.5L12.18,2.49L14.67,2.49L14.67,0.5L7.69,0.5L7.69,2.49L10.18,2.49L10.18,10.5L12.18,10.5ZM23.37,7.01L23.37,0.49L21.38,0.49L21.38,7C21.38,9.1 18.13,9.1 18.13,7L18.13,0.49L16.13,0.49L16.13,7.01C16.13,11.77 23.37,11.77 23.37,7.01ZM28.56,0.49L25.58,0.49L25.58,10.5L28.56,10.5C35.22,10.5 35.22,0.49 28.56,0.49ZM28.56,2.49C32.45,2.49 32.45,8.5 28.56,8.5L27.58,8.5L27.58,2.49L28.56,2.49ZM37.44,10.5L37.44,0.49L35.43,0.49L35.43,10.5L37.44,10.5ZM44.51,10.64C51.39,10.64 51.39,0.32 44.51,0.32C37.62,0.32 37.62,10.64 44.51,10.64ZM44.51,8.57C40.5,8.57 40.5,2.38 44.51,2.38C48.51,2.38 48.51,8.57 44.51,8.57ZM55.52,0.49L55.52,10.5L60.7,10.5L60.7,8.5L57.53,8.5L57.53,0.49L55.52,0.49ZM64.43,10.5L64.43,0.49L62.43,0.49L62.43,10.5L64.43,10.5ZM66.68,0.49L66.68,10.5L71.86,10.5L71.86,8.5L68.68,8.5L68.68,0.49L66.68,0.49ZM75.59,10.5L75.59,0.49L73.58,0.49L73.58,10.5L75.59,10.5ZM81.49,10.5L81.49,2.49L83.99,2.49L83.99,0.5L77,0.5L77,2.49L79.49,2.49L79.49,10.5L81.49,10.5Z" style="fill:rgb(247,249,253);fill-rule:nonzero;"/>
        </g>
    </g>
    <g transform="matrix(0.483891,0,0,0.483891,12.7298,15.7072)">
        <g id="_13a1d0c5-0ae3-482c-b582-fb992b70761b" serif:id="13a1d0c5-0ae3-482c-b582-fb992b70761b">
            <path d="M81.42,33.148C80.205,33.078 78.987,33.11 77.777,33.244C78.443,31.149 78.878,28.972 78.961,26.7C79.413,14.401 68.269,-0.434 54.93,0.224C45.811,0.673 41.703,8.46 40.164,18.012C33.596,10.735 23.07,6.483 14.267,12.782C4.273,19.931 5.538,33.425 12.184,42.13C5.265,44.292 0.445,49.31 0.808,58.929C1.133,67.549 8.762,73.472 16.74,74.335C13.535,83.156 15.538,93.825 24.576,98.368C34.562,103.386 45.991,97.463 51.002,88.495C52.008,86.696 52.81,84.786 53.449,82.8C59.951,88.789 70.125,91.842 77.289,85.218C82.82,80.107 83.985,73.155 81.883,66.878C90.134,65.954 98.599,60.245 99.153,51.519C99.822,41.011 91.279,33.752 81.42,33.148ZM54.934,14.365C57.311,9.433 65.142,20.606 65.86,22.75C68.492,30.605 60.411,38.517 53.232,42.878C51.756,33.682 51.151,22.206 54.934,14.365ZM20.979,24.038C24.921,16.597 33.71,31.226 34.93,33.642C36.418,36.594 37.703,39.823 38.748,43.143C37.184,42.729 35.608,42.364 34.022,42.048C25.159,38.321 16.54,32.417 20.979,24.038ZM13.638,57.463C14.434,52.432 21.092,52.202 28.096,53.516C29.391,54.082 30.701,54.614 32.023,55.113C31.425,55.634 30.853,56.178 30.272,56.715C28.917,57.609 27.529,58.452 26.111,59.242C23.708,60.566 12.527,64.482 13.638,57.463ZM31.221,87.115C22.31,85.896 32.821,72.492 34.999,70.12C35.864,69.177 36.808,68.291 37.736,67.392C39.429,66.241 41.077,65.025 42.675,63.746C43.052,74.456 41.712,88.546 31.221,87.115ZM69.188,75.189C65.376,80.01 59.199,69.452 58.025,67.223C57.036,65.331 56.169,63.377 55.431,61.373C55.423,61.23 55.415,61.09 55.41,60.947C56.144,61.219 56.896,61.507 57.653,61.809C58.278,62.08 58.899,62.35 59.535,62.6C66.612,65.702 73.158,70.168 69.188,75.189ZM86.033,51.301C83.461,56.605 74.82,54.856 67.166,51.878C66.927,51.757 66.682,51.642 66.437,51.524C68.858,50.077 71.361,48.77 73.973,47.716C76.468,46.708 89.467,44.212 86.033,51.301Z" style="fill:rgb(247,249,253);fill-rule:nonzero;"/>
        </g>
    </g>
    <g transform="matrix(0.75107,0,0,0.75107,73.6298,48.6078)">
        <g id="_0fb734e8-7141-4330-b102-0106fa2c7032" serif:id="0fb734e8-7141-4330-b102-0106fa2c7032">
            <path d="M7.03,11.48L8.23,11.48L10.43,4.48L9.31,4.48L7.63,10.18L5.85,4.48L4.7,4.48L2.93,10.18L1.25,4.48L0.13,4.48L2.32,11.48L3.53,11.48L5.28,5.89L7.03,11.48ZM21.53,10.64C20.12,10.64 19.21,9.65 19.05,8.4L24.92,8.4L24.92,7.98C24.92,5.98 23.59,4.37 21.45,4.37C19.31,4.37 17.98,5.98 17.98,7.98C17.98,9.98 19.38,11.59 21.52,11.59C23.18,11.59 24.22,10.72 24.71,9.46L23.56,9.46C23.18,10.16 22.51,10.64 21.53,10.64ZM21.45,5.32C22.79,5.32 23.63,6.23 23.83,7.42L19.07,7.42C19.26,6.23 20.1,5.32 21.45,5.32ZM36.76,4.37C35.6,4.37 34.78,4.86 34.26,5.61L34.26,1.68L33.21,1.68L33.21,11.48L34.26,11.48L34.26,10.36C34.78,11.12 35.6,11.59 36.76,11.59C38.81,11.59 40.15,9.98 40.15,7.98C40.15,5.98 38.81,4.37 36.76,4.37ZM36.62,10.64C35.07,10.64 34.2,9.42 34.2,7.98C34.2,6.54 35.07,5.32 36.62,5.32C38.18,5.32 39.1,6.54 39.1,7.98C39.1,9.42 38.18,10.64 36.62,10.64ZM61.46,4.37C59.42,4.37 58.07,5.98 58.07,7.98C58.07,9.98 59.42,11.59 61.46,11.59C62.62,11.59 63.45,11.12 63.97,10.36L63.97,11.48L65.02,11.48L65.02,1.68L63.97,1.68L63.97,5.61C63.45,4.86 62.62,4.37 61.46,4.37ZM61.6,10.64C60.05,10.64 59.12,9.42 59.12,7.98C59.12,6.54 60.05,5.32 61.6,5.32C63.15,5.32 64.02,6.54 64.02,7.98C64.02,9.42 63.15,10.64 61.6,10.64ZM76.96,10.64C75.54,10.64 74.63,9.65 74.48,8.4L80.35,8.4L80.35,7.98C80.35,5.98 79.02,4.37 76.87,4.37C74.73,4.37 73.4,5.98 73.4,7.98C73.4,9.98 74.8,11.59 76.94,11.59C78.61,11.59 79.65,10.72 80.14,9.46L78.99,9.46C78.61,10.16 77.94,10.64 76.96,10.64ZM76.87,5.32C78.22,5.32 79.06,6.23 79.25,7.42L74.49,7.42C74.69,6.23 75.53,5.32 76.87,5.32ZM93.3,4.48L91.1,10.36L88.89,4.48L87.74,4.48L90.48,11.48L91.71,11.48L94.44,4.48L93.3,4.48ZM118.5,7.73L115.79,7.73L115.79,4.89L114.88,4.89L114.88,7.73L112.2,7.73L112.2,8.64L114.88,8.64L114.88,11.48L115.79,11.48L115.79,8.64L118.5,8.64L118.5,7.73ZM140.04,4.37C138,4.37 136.65,5.98 136.65,7.98C136.65,9.98 138,11.59 140.04,11.59C141.2,11.59 142.03,11.12 142.55,10.36L142.55,11.48L143.6,11.48L143.6,1.68L142.55,1.68L142.55,5.61C142.03,4.86 141.2,4.37 140.04,4.37ZM140.18,10.64C138.63,10.64 137.7,9.42 137.7,7.98C137.7,6.54 138.63,5.32 140.18,5.32C141.74,5.32 142.6,6.54 142.6,7.98C142.6,9.42 141.74,10.64 140.18,10.64ZM155.54,10.64C154.13,10.64 153.22,9.65 153.06,8.4L158.93,8.4L158.93,7.98C158.93,5.98 157.6,4.37 155.46,4.37C153.31,4.37 151.98,5.98 151.98,7.98C151.98,9.98 153.38,11.59 155.53,11.59C157.19,11.59 158.23,10.72 158.72,9.46L157.57,9.46C157.19,10.16 156.52,10.64 155.54,10.64ZM155.46,5.32C156.8,5.32 157.64,6.23 157.84,7.42L153.08,7.42C153.27,6.23 154.11,5.32 155.46,5.32ZM169.65,4.37C167.85,4.37 166.91,5.11 166.91,6.37C166.91,8.93 171.57,7.84 171.57,9.59C171.57,10.54 170.35,10.7 169.78,10.7C168.42,10.7 167.89,10 167.82,9.28L166.73,9.28C166.8,10.51 167.82,11.59 169.76,11.59C171.5,11.59 172.62,10.85 172.62,9.49C172.62,6.86 167.96,7.95 167.96,6.27C167.96,5.59 168.53,5.26 169.62,5.26C170.8,5.26 171.25,5.75 171.33,6.36L172.4,6.36C172.27,5.33 171.5,4.37 169.65,4.37ZM180.96,11.48L182.01,11.48L182.01,4.48L180.96,4.48L180.96,11.48ZM180.92,1.93L180.92,3.3L182.06,3.3L182.06,1.93L180.92,1.93ZM196.29,4.48L196.29,5.6C195.78,4.84 194.95,4.37 193.79,4.37C191.74,4.37 190.4,5.92 190.4,7.92C190.4,9.93 191.74,11.48 193.79,11.48C194.95,11.48 195.78,10.99 196.29,10.23L196.29,11.2C196.29,12.64 195.59,13.41 193.98,13.41C192.92,13.41 192.22,13.01 191.94,12.32L190.78,12.32C191.17,13.54 192.28,14.36 194.04,14.36C196.14,14.36 197.34,13.27 197.34,11.27L197.34,4.48L196.29,4.48ZM193.93,10.53C192.37,10.53 191.45,9.37 191.45,7.92C191.45,6.48 192.37,5.32 193.93,5.32C195.45,5.32 196.35,6.48 196.35,7.92C196.35,9.37 195.45,10.53 193.93,10.53ZM206.16,4.48L206.16,11.48L207.21,11.48L207.21,7.45C207.21,6.19 208.17,5.32 209.33,5.32C210.48,5.32 211.29,6.16 211.29,7.43L211.29,11.48L212.34,11.48L212.34,7.41C212.34,5.42 210.98,4.37 209.54,4.37C208.4,4.37 207.72,4.9 207.21,5.57L207.21,4.48L206.16,4.48Z" style="fill:rgb(247,249,253);fill-rule:nonzero;"/>
        </g>
    </g>
</svg>
