<?xml version="1.0" encoding="UTF-8" standalone="no"?>
<!DOCTYPE svg PUBLIC "-//W3C//DTD SVG 1.1//EN" "http://www.w3.org/Graphics/SVG/1.1/DTD/svg11.dtd">
<svg width="100%" height="100%" viewBox="0 0 255 80" version="1.1" xmlns="http://www.w3.org/2000/svg" xmlns:xlink="http://www.w3.org/1999/xlink" xml:space="preserve" xmlns:serif="http://www.serif.com/" style="fill-rule:evenodd;clip-rule:evenodd;stroke-linejoin:round;stroke-miterlimit:2;">
    <g transform="matrix(0.85,0,0,0.266667,0,0)">
        <rect x="0" y="0" width="300" height="300" style="fill:rgb(17,62,59);"/>
    </g>
    <g id="_225f69e5-f51c-4d51-902e-b63c6fa1fced" serif:id="225f69e5-f51c-4d51-902e-b63c6fa1fced" transform="matrix(1.96073,0,0,1.96073,79.3473,13.9514)">
        <path d="M5.3,4.16C2.82,4.16 0.55,5.91 0.55,8.94C0.55,11.98 2.82,13.73 5.3,13.73C7.79,13.73 10.06,11.98 10.06,8.94C10.06,5.91 7.79,4.16 5.3,4.16ZM5.3,6.55C6.54,6.55 7.44,7.57 7.44,8.94C7.44,10.31 6.54,11.33 5.3,11.33C4.07,11.33 3.17,10.31 3.17,8.94C3.17,7.57 4.07,6.55 5.3,6.55ZM13.92,13.52L13.92,3.68L11.57,3.68L11.57,13.52L13.92,13.52ZM17.65,5.48C18.43,5.48 19.13,4.84 19.13,4.06C19.13,3.27 18.43,2.64 17.65,2.64C16.86,2.64 16.19,3.27 16.19,4.06C16.19,4.84 16.86,5.48 17.65,5.48ZM18.89,6.55L15.41,6.55L15.41,8.46L16.54,8.46L16.54,13.52L18.89,13.52L18.89,6.55ZM24.66,13.52L28,6.55L25.29,6.55L23.9,10.08L22.49,6.55L19.78,6.55L23.15,13.52L24.66,13.52ZM30.84,5.48C31.62,5.48 32.32,4.84 32.32,4.06C32.32,3.27 31.62,2.64 30.84,2.64C30.05,2.64 29.38,3.27 29.38,4.06C29.38,4.84 30.05,5.48 30.84,5.48ZM32.09,6.55L28.6,6.55L28.6,8.46L29.74,8.46L29.74,13.52L32.09,13.52L32.09,6.55ZM36.53,6.34C34.84,6.34 33.39,7.67 33.39,10.02C33.39,12.55 34.84,13.73 36.39,13.73C37.39,13.73 38.13,13.13 38.47,12.36L38.47,13.52L40.82,13.52L40.82,6.55L38.47,6.55L38.47,7.19C38.02,6.7 37.26,6.34 36.53,6.34ZM37.02,8.64C37.54,8.64 38.06,8.89 38.47,9.21L38.47,9.88C38.47,10.9 37.68,11.35 37.09,11.35C36.34,11.35 35.85,10.77 35.85,10.02C35.85,9.28 36.34,8.64 37.02,8.64ZM52.17,13.52L55.29,13.52L52.71,10.16C53.91,9.83 54.77,8.9 54.77,7.55C54.77,5.39 52.88,4.36 51.04,4.36L47.11,4.36L47.11,13.52L49.67,13.52L49.67,9.87L52.17,13.52ZM49.67,6.75L50.74,6.75C51.54,6.75 52.14,6.93 52.14,7.68C52.14,8.34 51.54,8.65 50.74,8.65C50.34,8.65 49.97,8.57 49.67,8.46L49.67,6.75ZM62.99,6.55L60.63,6.55L60.62,10.1C60.62,11.06 60.35,11.47 59.65,11.47C58.95,11.47 58.68,11.06 58.68,10.1L58.67,6.55L56.31,6.55L56.31,10.73C56.31,12.62 57.71,13.73 59.65,13.73C61.59,13.73 62.99,12.62 62.99,10.73L62.99,6.55ZM71.79,13.52L71.79,3.68L69.44,3.68L69.44,7.19C68.99,6.7 68.22,6.34 67.5,6.34C65.8,6.34 64.35,7.67 64.35,10.02C64.35,12.55 65.8,13.73 67.36,13.73C68.36,13.73 69.1,13.13 69.44,12.36L69.44,13.52L71.79,13.52ZM67.99,8.64C68.51,8.64 69.03,8.89 69.44,9.21L69.44,9.88C69.44,10.9 68.65,11.35 68.06,11.35C67.31,11.35 66.81,10.77 66.81,10.02C66.81,9.28 67.31,8.64 67.99,8.64ZM80.66,13.52L80.66,3.68L78.31,3.68L78.31,7.19C77.86,6.7 77.1,6.34 76.37,6.34C74.68,6.34 73.23,7.67 73.23,10.02C73.23,12.55 74.68,13.73 76.23,13.73C77.23,13.73 77.97,13.13 78.31,12.36L78.31,13.52L80.66,13.52ZM76.86,8.64C77.38,8.64 77.9,8.89 78.31,9.21L78.31,9.88C78.31,10.9 77.52,11.35 76.93,11.35C76.18,11.35 75.69,10.77 75.69,10.02C75.69,9.28 76.18,8.64 76.86,8.64Z" style="fill:rgb(247,249,253);fill-rule:nonzero;"/>
    </g>
    <g id="_67a2cffa-ccbc-434a-9708-eeb747e65af0" serif:id="67a2cffa-ccbc-434a-9708-eeb747e65af0" transform="matrix(0.50737,0,0,0.50737,17.0998,14.5284)">
        <path d="M81.42,33.148C80.205,33.078 78.987,33.11 77.777,33.244C78.443,31.149 78.878,28.972 78.961,26.7C79.413,14.401 68.269,-0.434 54.93,0.224C45.811,0.673 41.703,8.46 40.164,18.012C33.596,10.735 23.07,6.483 14.267,12.782C4.273,19.931 5.538,33.425 12.184,42.13C5.265,44.292 0.445,49.31 0.808,58.929C1.133,67.549 8.762,73.472 16.74,74.335C13.535,83.156 15.538,93.825 24.576,98.368C34.562,103.386 45.991,97.463 51.002,88.495C52.008,86.696 52.81,84.786 53.449,82.8C59.951,88.789 70.125,91.842 77.289,85.218C82.82,80.107 83.985,73.155 81.883,66.878C90.134,65.954 98.599,60.245 99.153,51.519C99.822,41.011 91.279,33.752 81.42,33.148ZM54.934,14.365C57.311,9.433 65.142,20.606 65.86,22.75C68.492,30.605 60.411,38.517 53.232,42.878C51.756,33.682 51.151,22.206 54.934,14.365ZM20.979,24.038C24.921,16.597 33.71,31.226 34.93,33.642C36.418,36.594 37.703,39.823 38.748,43.143C37.184,42.729 35.608,42.364 34.022,42.048C25.159,38.321 16.54,32.417 20.979,24.038ZM13.638,57.463C14.434,52.432 21.092,52.202 28.096,53.516C29.391,54.082 30.701,54.614 32.023,55.113C31.425,55.634 30.853,56.178 30.272,56.715C28.917,57.609 27.529,58.452 26.111,59.242C23.708,60.566 12.527,64.482 13.638,57.463ZM31.221,87.115C22.31,85.896 32.821,72.492 34.999,70.12C35.864,69.177 36.808,68.291 37.736,67.392C39.429,66.241 41.077,65.025 42.675,63.746C43.052,74.456 41.712,88.546 31.221,87.115ZM69.188,75.189C65.376,80.01 59.199,69.452 58.025,67.223C57.036,65.331 56.169,63.377 55.431,61.373C55.423,61.23 55.415,61.09 55.41,60.947C56.144,61.219 56.896,61.507 57.653,61.809C58.278,62.08 58.899,62.35 59.535,62.6C66.612,65.702 73.158,70.168 69.188,75.189ZM86.033,51.301C83.461,56.605 74.82,54.856 67.166,51.878C66.927,51.757 66.682,51.642 66.437,51.524C68.858,50.077 71.361,48.77 73.973,47.716C76.468,46.708 89.467,44.212 86.033,51.301Z" style="fill:rgb(247,249,253);fill-rule:nonzero;"/>
    </g>
    <g id="e55e1d99-319f-41e5-b5dc-0356c6391be3" transform="matrix(0.740183,0,0,0.740183,80.3295,49.6288)">
        <path d="M7.03,11.48L8.23,11.48L10.43,4.48L9.31,4.48L7.63,10.18L5.85,4.48L4.7,4.48L2.93,10.18L1.25,4.48L0.13,4.48L2.32,11.48L3.53,11.48L5.28,5.89L7.03,11.48ZM21.53,10.64C20.12,10.64 19.21,9.65 19.05,8.4L24.92,8.4L24.92,7.98C24.92,5.98 23.59,4.37 21.45,4.37C19.31,4.37 17.98,5.98 17.98,7.98C17.98,9.98 19.38,11.59 21.52,11.59C23.18,11.59 24.22,10.72 24.71,9.46L23.56,9.46C23.18,10.16 22.51,10.64 21.53,10.64ZM21.45,5.32C22.79,5.32 23.63,6.23 23.83,7.42L19.07,7.42C19.26,6.23 20.1,5.32 21.45,5.32ZM36.76,4.37C35.6,4.37 34.78,4.86 34.26,5.61L34.26,1.68L33.21,1.68L33.21,11.48L34.26,11.48L34.26,10.36C34.78,11.12 35.6,11.59 36.76,11.59C38.81,11.59 40.15,9.98 40.15,7.98C40.15,5.98 38.81,4.37 36.76,4.37ZM36.62,10.64C35.07,10.64 34.2,9.42 34.2,7.98C34.2,6.54 35.07,5.32 36.62,5.32C38.18,5.32 39.1,6.54 39.1,7.98C39.1,9.42 38.18,10.64 36.62,10.64ZM61.46,4.37C59.42,4.37 58.07,5.98 58.07,7.98C58.07,9.98 59.42,11.59 61.46,11.59C62.62,11.59 63.45,11.12 63.97,10.36L63.97,11.48L65.02,11.48L65.02,1.68L63.97,1.68L63.97,5.61C63.45,4.86 62.62,4.37 61.46,4.37ZM61.6,10.64C60.05,10.64 59.12,9.42 59.12,7.98C59.12,6.54 60.05,5.32 61.6,5.32C63.15,5.32 64.02,6.54 64.02,7.98C64.02,9.42 63.15,10.64 61.6,10.64ZM76.96,10.64C75.54,10.64 74.63,9.65 74.48,8.4L80.35,8.4L80.35,7.98C80.35,5.98 79.02,4.37 76.87,4.37C74.73,4.37 73.4,5.98 73.4,7.98C73.4,9.98 74.8,11.59 76.94,11.59C78.61,11.59 79.65,10.72 80.14,9.46L78.99,9.46C78.61,10.16 77.94,10.64 76.96,10.64ZM76.87,5.32C78.22,5.32 79.06,6.23 79.25,7.42L74.49,7.42C74.69,6.23 75.53,5.32 76.87,5.32ZM93.3,4.48L91.1,10.36L88.89,4.48L87.74,4.48L90.48,11.48L91.71,11.48L94.44,4.48L93.3,4.48ZM118.5,7.73L115.79,7.73L115.79,4.89L114.88,4.89L114.88,7.73L112.2,7.73L112.2,8.64L114.88,8.64L114.88,11.48L115.79,11.48L115.79,8.64L118.5,8.64L118.5,7.73ZM140.04,4.37C138,4.37 136.65,5.98 136.65,7.98C136.65,9.98 138,11.59 140.04,11.59C141.2,11.59 142.03,11.12 142.55,10.36L142.55,11.48L143.6,11.48L143.6,1.68L142.55,1.68L142.55,5.61C142.03,4.86 141.2,4.37 140.04,4.37ZM140.18,10.64C138.63,10.64 137.7,9.42 137.7,7.98C137.7,6.54 138.63,5.32 140.18,5.32C141.74,5.32 142.6,6.54 142.6,7.98C142.6,9.42 141.74,10.64 140.18,10.64ZM155.54,10.64C154.13,10.64 153.22,9.65 153.06,8.4L158.93,8.4L158.93,7.98C158.93,5.98 157.6,4.37 155.46,4.37C153.31,4.37 151.98,5.98 151.98,7.98C151.98,9.98 153.38,11.59 155.53,11.59C157.19,11.59 158.23,10.72 158.72,9.46L157.57,9.46C157.19,10.16 156.52,10.64 155.54,10.64ZM155.46,5.32C156.8,5.32 157.64,6.23 157.84,7.42L153.08,7.42C153.27,6.23 154.11,5.32 155.46,5.32ZM169.65,4.37C167.85,4.37 166.91,5.11 166.91,6.37C166.91,8.93 171.57,7.84 171.57,9.59C171.57,10.54 170.35,10.7 169.78,10.7C168.42,10.7 167.89,10 167.82,9.28L166.73,9.28C166.8,10.51 167.82,11.59 169.76,11.59C171.5,11.59 172.62,10.85 172.62,9.49C172.62,6.86 167.96,7.95 167.96,6.27C167.96,5.59 168.53,5.26 169.62,5.26C170.8,5.26 171.25,5.75 171.33,6.36L172.4,6.36C172.27,5.33 171.5,4.37 169.65,4.37ZM180.96,11.48L182.01,11.48L182.01,4.48L180.96,4.48L180.96,11.48ZM180.92,1.93L180.92,3.3L182.06,3.3L182.06,1.93L180.92,1.93ZM196.29,4.48L196.29,5.6C195.78,4.84 194.95,4.37 193.79,4.37C191.74,4.37 190.4,5.92 190.4,7.92C190.4,9.93 191.74,11.48 193.79,11.48C194.95,11.48 195.78,10.99 196.29,10.23L196.29,11.2C196.29,12.64 195.59,13.41 193.98,13.41C192.92,13.41 192.22,13.01 191.94,12.32L190.78,12.32C191.17,13.54 192.28,14.36 194.04,14.36C196.14,14.36 197.34,13.27 197.34,11.27L197.34,4.48L196.29,4.48ZM193.93,10.53C192.37,10.53 191.45,9.37 191.45,7.92C191.45,6.48 192.37,5.32 193.93,5.32C195.45,5.32 196.35,6.48 196.35,7.92C196.35,9.37 195.45,10.53 193.93,10.53ZM206.16,4.48L206.16,11.48L207.21,11.48L207.21,7.45C207.21,6.19 208.17,5.32 209.33,5.32C210.48,5.32 211.29,6.16 211.29,7.43L211.29,11.48L212.34,11.48L212.34,7.41C212.34,5.42 210.98,4.37 209.54,4.37C208.4,4.37 207.72,4.9 207.21,5.57L207.21,4.48L206.16,4.48Z" style="fill:rgb(247,249,253);fill-rule:nonzero;"/>
    </g>
</svg>
